<?xml version="1.0" standalone="no"?>
<!DOCTYPE svg PUBLIC "-//W3C//DTD SVG 20010904//EN"
 "http://www.w3.org/TR/2001/REC-SVG-20010904/DTD/svg10.dtd">
<svg version="1.0" xmlns="http://www.w3.org/2000/svg"
 width="203.000000pt" height="204.000000pt" viewBox="0 0 203.000000 204.000000"
 preserveAspectRatio="xMidYMid meet">

<g transform="translate(0.000000,204.000000) scale(0.100000,-0.100000)"
fill="#000000" stroke="none">
<path d="M0 1020 l0 -1020 1015 0 1015 0 0 1020 0 1020 -1015 0 -1015 0 0
-1020z m1253 940 c274 -68 501 -247 629 -496 87 -169 112 -286 105 -481 -5
-164 -27 -254 -93 -390 -128 -260 -347 -438 -644 -519 -102 -28 -358 -26 -468
4 -299 81 -539 290 -654 569 -55 132 -70 215 -71 373 0 107 5 154 23 225 100
401 436 693 850 739 69 8 247 -6 323 -24z"/>
<path d="M846 1799 c-166 -18 -245 -46 -313 -110 -39 -36 -44 -84 -14 -133 10
-17 22 -42 26 -56 5 -14 18 -41 30 -60 20 -32 21 -41 12 -107 -8 -54 -7 -85 3
-127 13 -54 13 -55 -17 -93 -87 -110 -97 -164 -39 -204 l32 -21 -2 -94 c-1
-62 2 -99 11 -110 10 -15 10 -24 -3 -53 -24 -56 -22 -206 4 -251 11 -19 30
-36 42 -38 11 -2 70 21 131 50 l111 53 0 -87 c0 -49 3 -88 8 -88 4 0 7 41 7
91 0 81 2 93 20 103 11 6 52 31 92 56 40 25 108 68 153 95 125 77 123 72 130
365 7 264 13 299 57 319 23 10 31 9 52 -7 66 -49 86 -155 57 -304 -23 -124
-35 -259 -40 -488 -4 -185 -4 -191 4 -62 12 211 60 462 106 554 57 113 67 161
61 302 -5 148 -25 221 -83 318 -48 78 -145 141 -269 173 -67 17 -271 25 -369
14z m142 -401 l3 -87 55 -50 c31 -28 59 -51 63 -51 20 0 35 -66 40 -180 l7
-125 -36 -35 c-39 -37 -200 -105 -297 -125 -10 -2 -26 -6 -36 -10 -16 -7 -18
-3 -16 26 5 74 0 94 -31 112 -24 14 -42 17 -89 11 -59 -6 -59 -6 -100 34 -23
22 -41 46 -41 52 0 17 29 70 68 123 31 44 34 52 27 90 -11 61 -7 165 7 195 11
22 30 32 98 54 147 48 174 54 225 54 l50 -1 3 -87z m-264 -610 c3 -13 6 -37 6
-53 0 -29 -3 -31 -53 -43 -88 -20 -103 -15 -91 32 5 21 13 26 52 29 l47 3 -51
2 c-42 2 -53 6 -57 21 -7 28 -1 31 74 31 61 0 67 -2 73 -22z"/>
<path d="M668 1294 c7 -3 12 -24 12 -49 0 -33 -4 -45 -17 -48 -16 -4 -16 -5
-1 -6 9 0 19 -11 21 -23 l4 -23 2 23 c1 27 22 28 46 2 10 -11 28 -20 39 -19
21 0 21 0 0 9 -45 18 -36 30 21 30 52 0 56 -2 50 -20 -4 -11 -2 -20 4 -20 6 0
11 9 11 20 0 13 7 20 20 20 11 0 20 -6 20 -14 0 -8 5 -18 12 -22 7 -5 9 -1 6
12 -4 16 1 20 24 22 15 1 28 -1 27 -5 -4 -22 3 -33 19 -32 10 0 12 3 5 6 -7 2
-13 11 -13 19 0 8 6 14 13 14 9 0 9 2 0 8 -6 4 -13 30 -15 57 l-4 50 -24 -53
c-13 -29 -29 -51 -34 -49 -6 2 -17 25 -25 50 -11 36 -19 47 -35 47 -14 0 -17
-3 -9 -8 11 -7 43 -72 43 -87 0 -3 -6 -5 -14 -5 -9 0 -16 13 -19 33 l-4 32 -1
-32 -2 -33 -60 0 c-45 0 -62 4 -66 15 -4 8 -10 15 -15 15 -4 0 -6 -7 -3 -15 4
-8 1 -15 -5 -15 -12 0 -15 48 -5 74 3 9 15 16 26 16 17 0 20 -5 16 -30 -4 -24
-2 -27 9 -18 8 6 13 21 11 32 -3 18 -11 21 -53 23 -27 1 -44 0 -37 -3z m302
-64 c0 -20 -5 -30 -15 -30 -18 0 -18 1 -5 34 13 34 20 33 20 -4z"/>
</g>
</svg>
